<svg width="25" height="27" viewBox="0 0 25 27" fill="none" xmlns="http://www.w3.org/2000/svg">
  <g id="icon">
  <g id="SvgjsG20933">
  <path id="Vector" d="M11.8452 26.782L1.48065 20.8431C1.23215 20.7002 1.02583 20.4951 0.882324 20.2482C0.738817 20.0013 0.663155 19.7214 0.662906 19.4364V7.56357C0.662306 7.27777 0.737566 6.99686 0.881115 6.74908C1.02466 6.5013 1.23144 6.2954 1.48065 6.15208L11.8452 0.218049C12.0945 0.0752024 12.3774 0 12.6653 0C12.9533 0 13.2361 0.0752024 13.4855 0.218049L23.8452 6.15688C24.0944 6.3002 24.3011 6.5061 24.4447 6.75388C24.5882 7.00166 24.6635 7.28257 24.6629 7.56837V19.4364C24.6635 19.7222 24.5882 20.0031 24.4447 20.2509C24.3011 20.4987 24.0944 20.7046 23.8452 20.8479L13.4855 26.782C13.2361 26.9248 12.9533 27 12.6653 27C12.3774 27 12.0945 26.9248 11.8452 26.782Z" fill="#0E1826"/>
  </g>
  <g id="SvgjsG20934">
  <path id="Vector_2" fill-rule="evenodd" clip-rule="evenodd" d="M6.44563 17.4131C6.44563 17.652 6.64091 17.846 6.88169 17.846C7.12246 17.846 7.31775 17.652 7.31775 17.4131V13.8536L11.0117 11.4572C11.2199 11.3377 11.3115 11.1801 11.3115 10.9415V8.17858C11.3115 7.93968 11.1162 7.74591 10.8755 7.74591C10.6347 7.74591 10.4394 7.93968 10.4394 8.17858V10.7858L6.7454 13.1839C6.53729 13.3017 6.44563 13.4593 6.44563 13.6979V17.4131ZM6.658 19.6888C6.72366 19.728 6.79961 19.7504 6.88169 19.7504C7.12246 19.7504 7.31776 19.5564 7.31776 19.3175C7.31776 19.1546 7.22697 19.0127 7.09291 18.9389L5.65732 18.1157V9.59245L6.44565 10.0445V11.6994C6.44565 11.9383 6.64094 12.1321 6.88172 12.1321C7.12249 12.1321 7.31778 11.9383 7.31778 11.6994V9.88887C7.31778 9.65031 7.22612 9.49269 7.01784 9.37324L5.43296 8.46583C5.3654 8.42817 5.29204 8.41019 5.2197 8.41019C4.97701 8.41019 4.78412 8.60735 4.78412 8.84082L4.78617 18.2715C4.78617 18.5101 4.87783 18.6677 5.08595 18.7871L6.658 19.6888ZM9.76512 19.3155C9.76512 19.4991 9.91322 19.7505 10.2008 19.7505C10.2776 19.7505 10.3533 19.7302 10.4198 19.6922L12.0749 18.7435C12.2076 18.6673 12.2998 18.5279 12.2998 18.365C12.2998 18.1261 12.1045 17.9323 11.8637 17.9323C11.7816 17.9323 11.7049 17.9549 11.6392 17.9941L10.6393 18.5676V15.6023C10.6393 15.3637 10.5477 15.2061 10.3394 15.0866L8.76733 14.185C8.70166 14.1458 8.62488 14.1233 8.5428 14.1233C8.30202 14.1233 8.10673 14.317 8.10673 14.5559C8.10673 14.7188 8.19752 14.8607 8.33159 14.9345L9.76718 15.7577L9.76512 19.3155ZM11.4284 16.4604C11.4284 16.6993 11.6237 16.8932 11.8644 16.8932C12.1052 16.8932 12.3005 16.6994 12.3005 16.4605V14.6499C12.3005 14.4114 12.2089 14.2538 12.0006 14.1343L10.4285 13.2327C10.3629 13.1935 10.2861 13.1709 10.204 13.1709C9.96322 13.1709 9.76793 13.3647 9.76793 13.6036C9.76793 13.7665 9.85872 13.9083 9.99279 13.9821L11.4284 14.8054V16.4604ZM8.10774 10.7464C8.10774 10.9852 8.30303 11.1792 8.5438 11.1792C8.78458 11.1792 8.97989 10.9854 8.97989 10.7465V8.93594C8.97989 8.69738 8.88823 8.53975 8.67994 8.4203L7.10789 7.51866C7.04222 7.47948 6.96544 7.45691 6.88336 7.45691C6.64258 7.45691 6.4473 7.65068 6.4473 7.88957C6.4473 8.05246 6.53809 8.19431 6.67215 8.26811L8.10774 9.09136V10.7464ZM17.2949 19.7357C17.3929 19.7357 17.4905 19.7057 17.5946 19.646L20.3933 16.8828C20.6015 16.7634 20.6932 16.6058 20.6932 16.3672V7.89065C20.6932 7.65175 20.4979 7.45798 20.2571 7.45798C20.0164 7.45798 19.8211 7.65175 19.8211 7.89065V16.2117L17.2947 18.8185L14.0516 18.1162V9.09278L14.0518 8.93735C14.0518 8.69845 13.8565 8.50469 13.6157 8.50469C13.375 8.50469 13.1797 8.69845 13.1797 8.93735V18.2722C13.1797 18.5107 13.2713 18.6684 13.4794 18.7878L16.9947 19.6462C17.0989 19.7059 17.1969 19.7357 17.2949 19.7357ZM14.8403 17.414C14.8403 17.6529 15.0356 17.8466 15.2763 17.8466C15.5171 17.8466 15.7124 17.6529 15.7124 17.414V9.79568C15.7124 9.55678 15.5171 9.36301 15.2763 9.36301C15.0356 9.36301 14.8403 9.55678 14.8403 9.79568V17.414ZM16.7246 17.1253C16.7246 17.3641 16.9203 17.5583 17.161 17.5583C17.2431 17.5583 17.3199 17.5355 17.3854 17.4963L18.7331 15.9307C18.9412 15.8112 19.0329 15.6536 19.0329 15.4151V8.84308C19.0329 8.60418 18.8376 8.41041 18.5969 8.41041C18.3561 8.41041 18.1608 8.60418 18.1608 8.84308V15.2595L16.9495 16.7467C16.8154 16.8205 16.7246 16.9624 16.7246 17.1253Z" fill="url(#paint0_linear_25_1006)"/>
  </g>
  </g>
  <defs>
  <linearGradient id="paint0_linear_25_1006" x1="4.78412" y1="7.45691" x2="22.0498" y2="19.678" gradientUnits="userSpaceOnUse">
  <stop stop-color="#EDF2FE"/>
  <stop offset="1" stop-color="#DDE8FD"/>
  </linearGradient>
  </defs>
  </svg>
  